# xmcd CD database file
#
# Track frame offsets:
#	150
#	25221
#	44394
#	69523
#	90578
#	116515
#	150777
#	175450
#	199904
#	223367
#
# Disc length: 3215 seconds
#
# Revision: 0
# Processed by: cddbd v1.5.2PL0 Copyright (c) Steve Scherf et al.
# Submitted via: CDex 1.70beta2
#
DISCID=870c8d0a
DTITLE=KAUSAY - Breath Of 0ur Ancestors
DYEAR=1900
DGENRE=New Age
TTITLE0=Axtu Leman Sumix
TTITLE1=El Desconocido
TTITLE2=Love Mountian
TTITLE3=Circle Of Friendship
TTITLE4=Night In Gale
TTITLE5=Heya-Hee
TTITLE6=Valle De Aeto
TTITLE7=White Buffalo
TTITLE8=Ananau
TTITLE9=Rain Dance
EXTD=
EXTT0=
EXTT1=
EXTT2=
EXTT3=
EXTT4=
EXTT5=
EXTT6=
EXTT7=
EXTT8=
EXTT9=
PLAYORDER=
